<svg id="Layer_1" data-name="Layer 1" xmlns="http://www.w3.org/2000/svg" viewBox="0 0 721.9 94.01"><defs><style>.cls-1{fill:#27c4d9;}.cls-2{fill:#ff9e2e;}</style></defs><title>logo_cosanpa_db_label_horizontal_wbg</title><path class="cls-1" d="M39.68,94a41.85,41.85,0,0,1-15.32-2.82,35.87,35.87,0,0,1-12.64-8.32A38.87,38.87,0,0,1,3.14,69.18,52.64,52.64,0,0,1,0,50.27,51.07,51.07,0,0,1,3.27,31.36a43,43,0,0,1,8.78-14.08A37.08,37.08,0,0,1,24.89,8.5a40.23,40.23,0,0,1,15.44-3A32,32,0,0,1,55.12,8.81,41.15,41.15,0,0,1,66,16.6L55.77,28.91A32.63,32.63,0,0,0,48.89,24a17.37,17.37,0,0,0-8.18-1.89A18.38,18.38,0,0,0,32.53,24a19.56,19.56,0,0,0-6.69,5.44,27.51,27.51,0,0,0-4.46,8.64A38,38,0,0,0,19.74,49.6q0,13.23,5.62,20.49a18.09,18.09,0,0,0,15.07,7.28,19.09,19.09,0,0,0,9.37-2.29,29.29,29.29,0,0,0,7.28-5.7L67.3,81.43Q56.58,94,39.68,94Z"/><path class="cls-1" d="M110.13,94a39.49,39.49,0,0,1-15.78-3.08A34.32,34.32,0,0,1,82.1,82.09a40.79,40.79,0,0,1-7.93-14,57.94,57.94,0,0,1-2.82-18.72,57.44,57.44,0,0,1,2.82-18.66A38.31,38.31,0,0,1,82.1,17,34,34,0,0,1,94.35,8.44,40.84,40.84,0,0,1,110.13,5.5a41.25,41.25,0,0,1,15.78,2.94A33.9,33.9,0,0,1,138.16,17a39.57,39.57,0,0,1,7.93,13.81,57,57,0,0,1,2.82,18.54,57.94,57.94,0,0,1-2.82,18.72,40.17,40.17,0,0,1-7.93,14,34.36,34.36,0,0,1-12.25,8.84A39.35,39.35,0,0,1,110.13,94Zm0-16.62c5.86,0,10.47-2.5,13.88-7.53s5.11-11.85,5.11-20.49-1.7-15.23-5.11-20a17,17,0,0,0-27.76,0q-5.11,7.19-5.11,20t5.11,20.49A15.93,15.93,0,0,0,110.13,77.39Z"/><path class="cls-1" d="M191,94a47.88,47.88,0,0,1-16.7-3.08,43.82,43.82,0,0,1-14.87-9.23l11-13.23a41.35,41.35,0,0,0,10.16,6.41,26.64,26.64,0,0,0,10.93,2.48c4,0,7-.75,9-2.23a7.12,7.12,0,0,0,2.94-6,6.59,6.59,0,0,0-.85-3.41,8,8,0,0,0-2.48-2.54,22.62,22.62,0,0,0-3.92-2.09l-5.05-2.17-11.12-4.71a32.57,32.57,0,0,1-6.35-3.41,28.27,28.27,0,0,1-5.5-4.91,22.2,22.2,0,0,1-3.87-6.55,23.13,23.13,0,0,1-1.44-8.44A22.64,22.64,0,0,1,165.12,21a24.53,24.53,0,0,1,6.29-8.13A30.3,30.3,0,0,1,181,7.43a36.81,36.81,0,0,1,12.25-2A39.92,39.92,0,0,1,208,8.34a37.06,37.06,0,0,1,12.76,8.38L211,28.89a37,37,0,0,0-8.38-5.05,23.7,23.7,0,0,0-9.29-1.77,13.75,13.75,0,0,0-7.93,2,6.51,6.51,0,0,0-2.94,5.7,5.59,5.59,0,0,0,1,3.33,9.49,9.49,0,0,0,2.74,2.48,26.32,26.32,0,0,0,4.12,2.09c1.58.65,3.27,1.38,5.11,2.17l11,4.46A29.79,29.79,0,0,1,218.74,53q4.53,5.51,4.52,14.53a24.43,24.43,0,0,1-2.17,10.16A24.11,24.11,0,0,1,214.8,86a31,31,0,0,1-10.16,5.76A38.5,38.5,0,0,1,191,94Z"/><path class="cls-1" d="M226.92,92.43l26.7-85.37h23.17l26.7,85.37H283.06l-5.24-20.29h-26l-5.25,20.29Zm30.9-43.21-2.09,7.85h18.2l-2-7.85c-1.22-4.28-2.41-8.82-3.53-13.63s-2.27-9.43-3.41-13.88h-.53c-1.05,4.54-2.11,9.19-3.21,13.94S259,45,257.82,49.22Z"/><path class="cls-1" d="M312.82,92.43V7.06H332.6l22.27,42.42,8.38,18.85h.53c-.43-4.54-.95-9.6-1.5-15.19a157.42,157.42,0,0,1-.85-16V7.06h18.34V92.43H360L337.72,49.87l-8.38-18.6h-.53c.43,4.71.95,9.78,1.5,15.19a150.19,150.19,0,0,1,.85,15.72V92.43Z"/><path class="cls-1" d="M399.89,92.43V7.06h29.33a59.82,59.82,0,0,1,13.23,1.38A29.91,29.91,0,0,1,453.18,13a22.61,22.61,0,0,1,7.28,8.52,28.67,28.67,0,0,1,2.68,13,29.26,29.26,0,0,1-2.68,13,24.93,24.93,0,0,1-7.28,9,31,31,0,0,1-10.61,5.25,46.87,46.87,0,0,1-12.84,1.7H419.12V92.45l-19.23,0Zm19.25-44.25h9.43q15.71,0,15.72-13.63c0-4.46-1.4-7.59-4.2-9.43s-6.8-2.74-12-2.74h-8.89v25.8Z"/><path class="cls-1" d="M460.52,92.43l26.7-85.37h23.17l26.7,85.37H516.66l-5.24-20.29H485.37l-5.25,20.29Zm30.9-43.21-2.09,7.85h18.2l-2-7.85c-1.22-4.28-2.41-8.82-3.53-13.63s-2.27-9.43-3.41-13.88h-.53c-1,4.54-2.11,9.19-3.21,13.94S492.65,45,491.42,49.22Z"/><path class="cls-1" d="M542,66.13V52.52h32.21V66.13Z"/><path class="cls-2" d="M611.88,94c-8.13,0-14.55-2.94-19.31-8.84S585.43,71,585.43,60.36a41.16,41.16,0,0,1,2.29-14.14,32.81,32.81,0,0,1,6.09-10.61,27.23,27.23,0,0,1,8.72-6.69,23.13,23.13,0,0,1,10.16-2.37A20.67,20.67,0,0,1,622,28.44a37.45,37.45,0,0,1,7.59,5.17L629,23.26V0h15.07V92.44H631.67l-1-6.94h-.53a34.16,34.16,0,0,1-8.24,6A21.08,21.08,0,0,1,611.88,94Zm3.67-12.44q7.19,0,13.49-7.2v-30a21,21,0,0,0-6.61-4.18A18.64,18.64,0,0,0,615.94,39c-4.18,0-7.73,1.83-10.61,5.5S601,53.42,601,60.23q0,10.47,3.73,15.92T615.55,81.57Z"/><path class="cls-2" d="M694.38,94a20.7,20.7,0,0,1-9-2.17,31.14,31.14,0,0,1-8.58-6.21h-.39l-1.3,6.8H663.23V0H678.3V23.82l-.39,10.73a37,37,0,0,1,8.84-5.76,22.94,22.94,0,0,1,9.76-2.23,24.31,24.31,0,0,1,10.73,2.29,22.22,22.22,0,0,1,8,6.55,29.78,29.78,0,0,1,5,10.27,49.44,49.44,0,0,1,1.7,13.49,44.23,44.23,0,0,1-2.29,14.73,33.84,33.84,0,0,1-6.09,10.93,26.11,26.11,0,0,1-8.78,6.8A23.63,23.63,0,0,1,694.38,94Zm-3.14-12.44q6.42,0,10.73-5.56t4.32-16.57c0-6.47-1.08-11.48-3.27-15.07S697.3,39,692.41,39q-6.81,0-14.14,7.2v30A20.51,20.51,0,0,0,685,80.39,19.48,19.48,0,0,0,691.24,81.57Z"/></svg>