<?xml version="1.0" encoding="utf-8"?>
<!-- Generator: Adobe Illustrator 24.0.1, SVG Export Plug-In . SVG Version: 6.00 Build 0)  -->
<svg version="1.1" id="Layer_1" xmlns="http://www.w3.org/2000/svg" xmlns:xlink="http://www.w3.org/1999/xlink" x="0px" y="0px"
	 viewBox="0 0 256.1 274.03" style="enable-background:new 0 0 256.1 274.03;" xml:space="preserve">
<style type="text/css">
	.st0{fill:#FFFFFF;}
	.st1{fill:#E48B25;}
	.st2{fill-rule:evenodd;clip-rule:evenodd;fill:#1C8A99;}
	.st3{fill-rule:evenodd;clip-rule:evenodd;fill:url(#SVGID_1_);}
	.st4{fill-rule:evenodd;clip-rule:evenodd;fill:url(#SVGID_2_);}
	.st5{fill-rule:evenodd;clip-rule:evenodd;fill:url(#SVGID_3_);}
	.st6{fill-rule:evenodd;clip-rule:evenodd;fill:url(#SVGID_4_);}
	.st7{fill:url(#SVGID_5_);stroke:#FFFFFF;stroke-width:2;stroke-miterlimit:10;}
</style>
<g>
	<path class="st0" d="M14.08,274.03c-1.92,0-3.73-0.33-5.44-1c-1.7-0.67-3.2-1.65-4.48-2.95c-1.29-1.3-2.3-2.92-3.04-4.85
		C0.37,263.3,0,261.06,0,258.52c0-2.51,0.39-4.75,1.16-6.71c0.77-1.97,1.81-3.63,3.11-4.99c1.3-1.36,2.82-2.4,4.55-3.11
		c1.73-0.71,3.56-1.07,5.48-1.07c1.95,0,3.7,0.4,5.25,1.18c1.55,0.79,2.83,1.71,3.86,2.76l-3.62,4.37
		c-0.77-0.71-1.59-1.29-2.44-1.74c-0.85-0.45-1.82-0.67-2.9-0.67c-1.02,0-1.99,0.22-2.9,0.67c-0.91,0.45-1.7,1.09-2.37,1.93
		c-0.67,0.84-1.19,1.86-1.58,3.07c-0.39,1.21-0.58,2.57-0.58,4.09c0,3.13,0.67,5.55,2,7.27c1.33,1.72,3.11,2.58,5.34,2.58
		c1.24,0,2.35-0.27,3.32-0.81s1.83-1.21,2.58-2.02l3.62,4.27C21.34,272.55,18.07,274.03,14.08,274.03z"/>
	<path class="st0" d="M39.07,274.03c-2.04,0-3.91-0.37-5.6-1.09c-1.69-0.73-3.14-1.77-4.34-3.14c-1.21-1.36-2.15-3.02-2.81-4.97
		c-0.67-1.95-1-4.17-1-6.64c0-2.48,0.33-4.68,1-6.62c0.67-1.93,1.6-3.56,2.81-4.88c1.21-1.32,2.65-2.32,4.34-3.02
		c1.69-0.7,3.55-1.05,5.6-1.05s3.91,0.35,5.6,1.05c1.69,0.7,3.14,1.71,4.34,3.04c1.21,1.33,2.14,2.97,2.81,4.9
		c0.67,1.94,1,4.13,1,6.57c0,2.48-0.33,4.69-1,6.64c-0.67,1.95-1.6,3.61-2.81,4.97c-1.21,1.36-2.66,2.41-4.34,3.14
		C42.98,273.67,41.11,274.03,39.07,274.03z M39.07,268.13c2.07,0,3.72-0.89,4.92-2.67c1.21-1.78,1.81-4.2,1.81-7.27
		c0-3.04-0.6-5.4-1.81-7.11c-1.21-1.7-2.85-2.55-4.92-2.55c-2.08,0-3.72,0.85-4.92,2.55c-1.21,1.7-1.81,4.07-1.81,7.11
		c0,3.07,0.6,5.49,1.81,7.27C35.35,267.24,36.99,268.13,39.07,268.13z"/>
	<path class="st0" d="M67.78,274.03c-1.98,0-3.96-0.37-5.92-1.09c-1.97-0.73-3.72-1.82-5.27-3.28l3.9-4.69
		c1.08,0.93,2.28,1.69,3.6,2.28c1.32,0.59,2.61,0.88,3.88,0.88c1.42,0,2.49-0.26,3.18-0.79s1.05-1.24,1.05-2.14
		c0-0.46-0.1-0.87-0.3-1.21c-0.2-0.34-0.5-0.64-0.88-0.91c-0.39-0.26-0.85-0.51-1.39-0.74c-0.54-0.23-1.14-0.49-1.79-0.77
		l-3.95-1.67c-0.77-0.31-1.53-0.71-2.25-1.21c-0.73-0.5-1.38-1.08-1.95-1.74c-0.57-0.67-1.03-1.44-1.37-2.32
		c-0.34-0.88-0.51-1.88-0.51-3c0-1.24,0.26-2.41,0.79-3.51c0.53-1.1,1.27-2.06,2.23-2.88c0.96-0.82,2.1-1.46,3.41-1.93
		c1.32-0.46,2.76-0.7,4.34-0.7c1.77,0,3.51,0.34,5.23,1.02c1.72,0.68,3.23,1.67,4.53,2.97l-3.48,4.32
		c-0.99-0.77-1.98-1.37-2.97-1.79c-0.99-0.42-2.09-0.63-3.3-0.63c-1.18,0-2.11,0.24-2.81,0.72c-0.7,0.48-1.04,1.15-1.04,2.02
		c0,0.46,0.12,0.86,0.35,1.18c0.23,0.33,0.56,0.62,0.98,0.88c0.42,0.26,0.91,0.51,1.46,0.74s1.16,0.49,1.81,0.77l3.9,1.58
		c1.86,0.74,3.32,1.77,4.39,3.07s1.6,3.02,1.6,5.16c0,1.27-0.26,2.47-0.77,3.6c-0.51,1.13-1.25,2.12-2.23,2.97s-2.18,1.53-3.6,2.04
		C71.18,273.78,69.57,274.03,67.78,274.03z"/>
	<path class="st0" d="M80.5,273.48l9.48-30.29h8.22l9.48,30.29h-7.25l-1.86-7.2h-9.24l-1.86,7.2H80.5z M91.47,258.15l-0.74,2.79
		h6.46l-0.7-2.79c-0.43-1.52-0.85-3.13-1.25-4.83c-0.4-1.7-0.81-3.34-1.21-4.92h-0.19c-0.37,1.61-0.75,3.26-1.14,4.95
		C92.31,255.03,91.9,256.63,91.47,258.15z"/>
	<path class="st0" d="M110.98,273.48v-30.29h7.01l7.9,15.05l2.97,6.69h0.19c-0.16-1.61-0.33-3.41-0.53-5.39
		c-0.2-1.98-0.3-3.87-0.3-5.67v-10.68h6.5v30.29h-7.01l-7.9-15.1l-2.97-6.6h-0.19c0.15,1.67,0.33,3.47,0.53,5.39
		c0.2,1.92,0.3,3.78,0.3,5.57v10.73H110.98z"/>
	<path class="st0" d="M141.87,273.48v-30.29h10.41c1.67,0,3.24,0.16,4.69,0.49c1.46,0.33,2.72,0.87,3.81,1.63s1.94,1.76,2.58,3.02
		c0.63,1.25,0.95,2.8,0.95,4.62c0,1.76-0.32,3.3-0.95,4.6s-1.49,2.37-2.58,3.21s-2.34,1.46-3.76,1.86s-2.94,0.6-4.55,0.6h-3.76
		v10.27H141.87z M148.7,257.78h3.34c3.72,0,5.58-1.61,5.58-4.83c0-1.58-0.5-2.69-1.49-3.34c-0.99-0.65-2.42-0.98-4.27-0.98h-3.16
		V257.78z"/>
	<path class="st0" d="M163.38,273.48l9.48-30.29h8.22l9.48,30.29h-7.25l-1.86-7.2h-9.24l-1.86,7.2H163.38z M174.34,258.15
		l-0.74,2.79h6.46l-0.7-2.79c-0.43-1.52-0.85-3.13-1.25-4.83s-0.81-3.34-1.21-4.92h-0.19c-0.37,1.61-0.75,3.26-1.14,4.95
		C175.18,255.03,174.77,256.63,174.34,258.15z"/>
	<path class="st0" d="M192.27,264.14v-4.83h11.43v4.83H192.27z"/>
	<path class="st1" d="M217.08,274.03c-2.88,0-5.16-1.05-6.85-3.14c-1.69-2.09-2.53-5.02-2.53-8.8c0-1.86,0.27-3.53,0.81-5.02
		c0.54-1.49,1.26-2.74,2.16-3.76c0.9-1.02,1.93-1.81,3.09-2.37s2.36-0.84,3.6-0.84c1.3,0,2.4,0.22,3.3,0.67
		c0.9,0.45,1.8,1.06,2.69,1.83l-0.19-3.67v-8.27h5.34v32.8h-4.41l-0.37-2.46h-0.19c-0.84,0.84-1.81,1.55-2.93,2.14
		C219.49,273.74,218.31,274.03,217.08,274.03z M218.38,269.62c1.7,0,3.3-0.85,4.78-2.56v-10.64c-0.81-0.71-1.59-1.21-2.35-1.49
		s-1.53-0.42-2.3-0.42c-1.49,0-2.74,0.65-3.76,1.95c-1.02,1.3-1.53,3.16-1.53,5.57c0,2.48,0.44,4.36,1.32,5.64
		C215.43,268.98,216.7,269.62,218.38,269.62z"/>
	<path class="st1" d="M246.34,274.03c-1.05,0-2.11-0.26-3.18-0.77c-1.07-0.51-2.08-1.25-3.04-2.21h-0.14l-0.46,2.42h-4.23v-32.8
		h5.34v8.46l-0.14,3.81c0.96-0.84,2-1.52,3.14-2.04s2.28-0.79,3.46-0.79c1.42,0,2.69,0.27,3.81,0.81c1.11,0.54,2.06,1.32,2.83,2.32
		c0.77,1.01,1.36,2.22,1.77,3.65c0.4,1.42,0.6,3.02,0.6,4.78c0,1.95-0.27,3.69-0.81,5.23c-0.54,1.53-1.26,2.83-2.16,3.88
		c-0.9,1.05-1.94,1.86-3.11,2.42C248.83,273.76,247.61,274.03,246.34,274.03z M245.23,269.62c1.52,0,2.79-0.66,3.81-1.97
		c1.02-1.32,1.53-3.28,1.53-5.88c0-2.29-0.39-4.07-1.16-5.34c-0.78-1.27-2.03-1.9-3.76-1.9c-1.61,0-3.28,0.85-5.02,2.55v10.64
		c0.8,0.71,1.6,1.21,2.39,1.49C243.81,269.48,244.54,269.62,245.23,269.62z"/>
</g>
<g id="desenho_7_">
	<path class="st2" d="M207.51,51.4c0,28.39-23.02,51.4-51.4,51.4c-28.39,0-51.4,23.02-51.4,51.4c0,28.39,23.01,51.41,51.4,51.41
		c-56.78,0-102.8-46.03-102.8-102.81S99.33,0,156.11,0C184.49,0,207.51,23.02,207.51,51.4z"/>
	<radialGradient id="SVGID_1_" cx="172.6324" cy="121.8567" r="124.6117" gradientUnits="userSpaceOnUse">
		<stop  offset="0" style="stop-color:#197D8B"/>
		<stop  offset="1" style="stop-color:#27C4D9"/>
	</radialGradient>
	<path class="st3" d="M207.52,51.4c0,28.4-23.03,51.4-51.43,51.4c-0.93,0-1.89,0-2.82,0.06c-37.5,1.14-69.17,25.52-81.18,59.2
		c-11.86-16.75-18.79-37.2-18.79-59.26C53.3,46.02,99.32,0,156.09,0C184.49,0,207.52,23.03,207.52,51.4z"/>
	<radialGradient id="SVGID_2_" cx="134.8246" cy="156.6477" r="72.3052" gradientUnits="userSpaceOnUse">
		<stop  offset="0" style="stop-color:#27C4D9"/>
		<stop  offset="1" style="stop-color:#197F8C"/>
	</radialGradient>
	<path class="st4" d="M153.45,205.55c-33.62-0.81-63.25-17.8-81.36-43.5c2.37-6.66,5.52-12.97,9.34-18.79
		c4.98,33.38,32.66,59.38,66.86,61.75c0.06,0.03,0.09,0.03,0.15,0.03C150.09,205.31,151.77,205.46,153.45,205.55z"/>
	<radialGradient id="SVGID_3_" cx="142.7495" cy="152.2246" r="74.5873" gradientUnits="userSpaceOnUse">
		<stop  offset="0" style="stop-color:#197F8C"/>
		<stop  offset="1" style="stop-color:#156873"/>
	</radialGradient>
	<path class="st5" d="M147.93,204.95c-29.81-2.76-53.14-27.86-53.14-58.39c0-8.44,1.77-16.48,5.01-23.72
		c14.65-11.98,33.2-19.36,53.47-19.99c-27.05,1.47-48.57,23.93-48.57,51.37C104.7,179.8,123.43,201.05,147.93,204.95z"/>
	<radialGradient id="SVGID_4_" cx="139.7039" cy="164.4371" r="57.8786" gradientUnits="userSpaceOnUse">
		<stop  offset="0.034" style="stop-color:#27C4D9"/>
		<stop  offset="1" style="stop-color:#197F8C"/>
	</radialGradient>
	<path class="st6" d="M148.29,205.01c-34.19-2.37-61.87-28.37-66.86-61.75c5.04-7.72,11.26-14.62,18.37-20.41
		c-3.24,7.23-5.01,15.28-5.01,23.72c0,30.53,23.33,55.63,53.14,58.39C148.05,204.98,148.17,205.01,148.29,205.01z"/>
	<linearGradient id="SVGID_5_" gradientUnits="userSpaceOnUse" x1="48.2445" y1="185.3394" x2="111.6123" y2="185.3394">
		<stop  offset="0" style="stop-color:#FFB054"/>
		<stop  offset="1" style="stop-color:#E48B25"/>
	</linearGradient>
	<path class="st7" d="M111.61,194.95c0,5.9-4.78,10.67-10.67,10.67H63.31c-8.32,0-15.06-6.74-15.06-15.05
		c0-8.32,6.74-15.06,15.06-15.06c1.12,0,2.21,0.12,3.26,0.35c3.4-6.42,10.14-10.79,17.91-10.79c11.1,0,20.11,8.92,20.26,19.95
		C108.76,186.52,111.61,190.4,111.61,194.95z"/>
</g>
</svg>
