<?xml version="1.0" encoding="utf-8"?>
<!-- Generator: Adobe Illustrator 24.0.1, SVG Export Plug-In . SVG Version: 6.00 Build 0)  -->
<svg version="1.1" id="Layer_1" xmlns="http://www.w3.org/2000/svg" xmlns:xlink="http://www.w3.org/1999/xlink" x="0px" y="0px"
	 viewBox="0 0 957.56 206.62" style="enable-background:new 0 0 957.56 206.62;" xml:space="preserve">
<style type="text/css">
	.st0{fill:#27C4D9;}
	.st1{fill:#FF9E2E;}
	.st2{fill-rule:evenodd;clip-rule:evenodd;fill:#1C8A99;}
	.st3{fill-rule:evenodd;clip-rule:evenodd;fill:url(#SVGID_1_);}
	.st4{fill-rule:evenodd;clip-rule:evenodd;fill:url(#SVGID_2_);}
	.st5{fill-rule:evenodd;clip-rule:evenodd;fill:url(#SVGID_3_);}
	.st6{fill-rule:evenodd;clip-rule:evenodd;fill:url(#SVGID_4_);}
	.st7{fill:url(#SVGID_5_);stroke:#FFFFFF;stroke-width:2;stroke-miterlimit:10;}
</style>
<g>
	<path class="st0" d="M275.37,150.87c-5.42,0-10.51-0.95-15.32-2.82s-9.01-4.65-12.64-8.32c-3.63-3.67-6.49-8.22-8.58-13.69
		c-2.09-5.46-3.14-11.75-3.14-18.91c0-7.08,1.08-13.37,3.27-18.91c2.19-5.54,5.11-10.24,8.78-14.08c3.67-3.85,7.95-6.76,12.84-8.78
		c4.89-2.01,10.04-3.02,15.44-3.02c5.5,0,10.43,1.1,14.79,3.33c4.36,2.23,7.99,4.83,10.87,7.79l-10.22,12.31
		c-2.19-2.01-4.48-3.65-6.88-4.91c-2.41-1.26-5.13-1.89-8.18-1.89c-2.88,0-5.6,0.63-8.18,1.89c-2.58,1.26-4.79,3.08-6.69,5.44
		c-1.87,2.35-3.35,5.25-4.46,8.64c-1.08,3.41-1.64,7.24-1.64,11.52c0,8.82,1.87,15.64,5.62,20.49c3.75,4.85,8.78,7.28,15.07,7.28
		c3.49,0,6.61-0.77,9.37-2.29c2.74-1.52,5.17-3.43,7.28-5.7l10.22,12.05C295.84,146.69,286.63,150.87,275.37,150.87z"/>
	<path class="st0" d="M345.82,150.87c-5.76,0-11.02-1.03-15.78-3.08c-4.75-2.05-8.84-4.99-12.25-8.84c-3.41-3.85-6.05-8.52-7.93-14
		c-1.87-5.5-2.82-11.73-2.82-18.72s0.95-13.19,2.82-18.66s4.52-10.04,7.93-13.75c3.41-3.71,7.47-6.55,12.25-8.52
		c4.75-1.97,10.02-2.94,15.78-2.94c5.76,0,11.02,0.99,15.78,2.94c4.75,1.97,8.84,4.83,12.25,8.58c3.41,3.75,6.03,8.36,7.93,13.81
		c1.87,5.46,2.82,11.64,2.82,18.54c0,6.98-0.95,13.23-2.82,18.72c-1.87,5.5-4.52,10.18-7.93,14c-3.41,3.85-7.49,6.78-12.25,8.84
		C356.84,149.85,351.57,150.87,345.82,150.87z M345.82,134.25c5.86,0,10.47-2.5,13.88-7.53c3.41-5.01,5.11-11.85,5.11-20.49
		c0-8.56-1.7-15.23-5.11-20.04c-3.41-4.79-8.03-7.2-13.88-7.2s-10.47,2.41-13.88,7.2s-5.11,11.48-5.11,20.04
		c0,8.64,1.7,15.48,5.11,20.49C335.34,131.74,339.96,134.25,345.82,134.25z"/>
	<path class="st0" d="M426.73,150.87c-5.58,0-11.16-1.03-16.7-3.08c-5.54-2.05-10.49-5.13-14.87-9.23l11-13.23
		c3.06,2.62,6.43,4.75,10.16,6.41c3.71,1.66,7.36,2.48,10.93,2.48c4.02,0,7-0.75,8.97-2.23c1.97-1.48,2.94-3.49,2.94-6.02
		c0-1.3-0.28-2.45-0.85-3.41c-0.57-0.97-1.4-1.81-2.48-2.54c-1.08-0.75-2.41-1.44-3.92-2.09c-1.52-0.65-3.21-1.38-5.05-2.17
		l-11.12-4.71c-2.19-0.87-4.3-2.01-6.35-3.41c-2.05-1.4-3.89-3.04-5.5-4.91c-1.62-1.87-2.9-4.06-3.87-6.55s-1.44-5.31-1.44-8.44
		c0-3.49,0.75-6.78,2.23-9.88c1.48-3.1,3.57-5.8,6.29-8.13c2.7-2.31,5.92-4.12,9.62-5.44c3.71-1.3,7.79-1.97,12.25-1.97
		c4.97,0,9.88,0.97,14.73,2.88c4.85,1.91,9.09,4.71,12.76,8.38l-9.82,12.17c-2.8-2.19-5.58-3.87-8.38-5.05
		c-2.8-1.18-5.9-1.77-9.29-1.77c-3.31,0-5.96,0.67-7.93,2.03c-1.97,1.36-2.94,3.25-2.94,5.7c0,1.3,0.34,2.43,0.99,3.33
		c0.65,0.91,1.58,1.76,2.74,2.48c1.18,0.75,2.54,1.44,4.12,2.09c1.58,0.65,3.27,1.38,5.11,2.17l11,4.46
		c5.25,2.09,9.37,4.97,12.37,8.64c3.02,3.67,4.52,8.52,4.52,14.53c0,3.59-0.73,6.96-2.17,10.16s-3.53,5.98-6.29,8.38
		c-2.74,2.41-6.13,4.32-10.16,5.76C436.34,150.16,431.8,150.87,426.73,150.87z"/>
	<path class="st0" d="M462.61,149.29l26.7-85.37h23.17l26.7,85.37h-20.43L513.51,129h-26.05l-5.25,20.29H462.61z M493.51,106.08
		l-2.09,7.85h18.2l-1.97-7.85c-1.22-4.28-2.41-8.82-3.53-13.63c-1.14-4.79-2.27-9.43-3.41-13.88h-0.53
		c-1.05,4.54-2.11,9.19-3.21,13.94C495.9,97.29,494.73,101.82,493.51,106.08z"/>
	<path class="st0" d="M548.51,149.29V63.92h19.78l22.27,42.42l8.38,18.85h0.53c-0.43-4.54-0.95-9.6-1.5-15.19
		c-0.57-5.58-0.85-10.91-0.85-15.97V63.92h18.34v85.37h-19.78l-22.27-42.56l-8.38-18.6h-0.53c0.43,4.71,0.95,9.78,1.5,15.19
		c0.57,5.42,0.85,10.65,0.85,15.72v30.25H548.51z"/>
	<path class="st0" d="M635.58,149.29V63.92h29.33c4.71,0,9.13,0.45,13.23,1.38c4.1,0.91,7.67,2.45,10.73,4.58s5.48,4.97,7.28,8.52
		c1.79,3.53,2.68,7.89,2.68,13.04c0,4.97-0.89,9.29-2.68,12.96c-1.79,3.67-4.22,6.69-7.28,9.03c-3.06,2.37-6.59,4.1-10.61,5.25
		c-4.02,1.14-8.3,1.7-12.84,1.7h-10.61v28.93L635.58,149.29L635.58,149.29z M654.83,105.04h9.43c10.47,0,15.72-4.54,15.72-13.63
		c0-4.46-1.4-7.59-4.2-9.43c-2.8-1.83-6.8-2.74-12.05-2.74h-8.89V105.04z"/>
	<path class="st0" d="M696.21,149.29l26.7-85.37h23.17l26.7,85.37h-20.43L747.11,129h-26.05l-5.25,20.29H696.21z M727.11,106.08
		l-2.09,7.85h18.2l-1.97-7.85c-1.22-4.28-2.41-8.82-3.53-13.63c-1.14-4.79-2.27-9.43-3.41-13.88h-0.53
		c-1.05,4.54-2.11,9.19-3.21,13.94C729.5,97.29,728.34,101.82,727.11,106.08z"/>
	<path class="st0" d="M777.66,122.99v-13.61h32.21v13.61H777.66z"/>
	<path class="st1" d="M847.57,150.87c-8.13,0-14.55-2.94-19.31-8.84c-4.75-5.9-7.14-14.16-7.14-24.81c0-5.25,0.77-9.96,2.29-14.14
		c1.52-4.18,3.55-7.73,6.09-10.61c2.52-2.88,5.44-5.11,8.72-6.69c3.27-1.58,6.67-2.37,10.16-2.37c3.67,0,6.76,0.63,9.29,1.89
		c2.52,1.26,5.07,3,7.59,5.17l-0.53-10.35V56.86h15.07v92.44h-12.44l-1.05-6.94h-0.53c-2.37,2.37-5.11,4.36-8.24,6.02
		C854.4,150.04,851.06,150.87,847.57,150.87z M851.24,138.43c4.79,0,9.29-2.41,13.49-7.2v-30c-2.27-2.01-4.48-3.41-6.61-4.18
		c-2.15-0.79-4.3-1.18-6.49-1.18c-4.18,0-7.73,1.83-10.61,5.5s-4.32,8.91-4.32,15.72c0,6.98,1.24,12.29,3.73,15.92
		C842.92,136.63,846.53,138.43,851.24,138.43z"/>
	<path class="st1" d="M930.07,150.87c-2.96,0-5.96-0.73-8.97-2.17c-3.02-1.44-5.88-3.51-8.58-6.21h-0.39l-1.3,6.8h-11.91V56.86
		h15.07v23.82l-0.39,10.73c2.7-2.37,5.66-4.28,8.84-5.76c3.19-1.48,6.43-2.23,9.76-2.23c4.02,0,7.59,0.77,10.73,2.29
		c3.14,1.52,5.8,3.71,7.99,6.55c2.19,2.84,3.85,6.27,4.97,10.27c1.14,4.02,1.7,8.52,1.7,13.49c0,5.5-0.77,10.41-2.29,14.73
		c-1.52,4.32-3.55,7.97-6.09,10.93c-2.54,2.96-5.46,5.25-8.78,6.8C937.09,150.08,933.66,150.87,930.07,150.87z M926.93,138.43
		c4.28,0,7.85-1.85,10.73-5.56s4.32-9.23,4.32-16.57c0-6.47-1.08-11.48-3.27-15.07c-2.19-3.57-5.72-5.36-10.61-5.36
		c-4.54,0-9.25,2.41-14.14,7.2v30c2.27,2.01,4.52,3.41,6.74,4.18C922.93,138.01,925,138.43,926.93,138.43z"/>
</g>
<g id="desenho_6_">
	<path class="st2" d="M160.26,51.4c0,28.39-23.02,51.4-51.4,51.4c-28.39,0-51.4,23.02-51.4,51.4c0,28.39,23.01,51.41,51.4,51.41
		c-56.78,0-102.8-46.03-102.8-102.81S52.09,0,108.86,0C137.25,0,160.26,23.02,160.26,51.4z"/>
	
		<radialGradient id="SVGID_1_" cx="125.3879" cy="86.1433" r="124.6117" gradientTransform="matrix(1 0 0 -1 0 208)" gradientUnits="userSpaceOnUse">
		<stop  offset="0" style="stop-color:#197D8B"/>
		<stop  offset="1" style="stop-color:#27C4D9"/>
	</radialGradient>
	<path class="st3" d="M160.27,51.4c0,28.4-23.03,51.4-51.43,51.4c-0.93,0-1.89,0-2.82,0.06c-37.5,1.14-69.17,25.52-81.18,59.2
		c-11.86-16.75-18.79-37.2-18.79-59.26C6.06,46.02,52.08,0,108.85,0C137.25,0,160.27,23.03,160.27,51.4z"/>
	
		<radialGradient id="SVGID_2_" cx="87.5801" cy="51.3523" r="72.3052" gradientTransform="matrix(1 0 0 -1 0 208)" gradientUnits="userSpaceOnUse">
		<stop  offset="0" style="stop-color:#27C4D9"/>
		<stop  offset="1" style="stop-color:#197F8C"/>
	</radialGradient>
	<path class="st4" d="M106.21,205.55c-33.62-0.81-63.25-17.8-81.36-43.5c2.37-6.66,5.52-12.97,9.34-18.79
		c4.98,33.38,32.66,59.38,66.86,61.75c0.06,0.03,0.09,0.03,0.15,0.03C102.84,205.31,104.53,205.46,106.21,205.55z"/>
	
		<radialGradient id="SVGID_3_" cx="95.505" cy="55.7754" r="74.5873" gradientTransform="matrix(1 0 0 -1 0 208)" gradientUnits="userSpaceOnUse">
		<stop  offset="0" style="stop-color:#197F8C"/>
		<stop  offset="1" style="stop-color:#156873"/>
	</radialGradient>
	<path class="st5" d="M100.68,204.95c-29.81-2.76-53.14-27.86-53.14-58.39c0-8.44,1.77-16.48,5.01-23.72
		c14.65-11.98,33.2-19.36,53.47-19.99c-27.05,1.47-48.57,23.93-48.57,51.37C57.45,179.8,76.19,201.05,100.68,204.95z"/>
	
		<radialGradient id="SVGID_4_" cx="92.4594" cy="43.5629" r="57.8786" gradientTransform="matrix(1 0 0 -1 0 208)" gradientUnits="userSpaceOnUse">
		<stop  offset="0.034" style="stop-color:#27C4D9"/>
		<stop  offset="1" style="stop-color:#197F8C"/>
	</radialGradient>
	<path class="st6" d="M101.04,205.01c-34.19-2.37-61.87-28.37-66.86-61.75c5.04-7.72,11.26-14.62,18.37-20.41
		c-3.24,7.23-5.01,15.28-5.01,23.72c0,30.53,23.33,55.63,53.14,58.39C100.8,204.98,100.92,205.01,101.04,205.01z"/>
	
		<linearGradient id="SVGID_5_" gradientUnits="userSpaceOnUse" x1="1" y1="22.655" x2="64.37" y2="22.655" gradientTransform="matrix(1 0 0 -1 0 208)">
		<stop  offset="0" style="stop-color:#FFB054"/>
		<stop  offset="1" style="stop-color:#E48B25"/>
	</linearGradient>
	<path class="st7" d="M64.37,194.95c0,5.9-4.78,10.67-10.67,10.67H16.06C7.74,205.61,1,198.87,1,190.57
		c0-8.32,6.74-15.06,15.06-15.06c1.12,0,2.21,0.12,3.26,0.35c3.4-6.42,10.14-10.79,17.91-10.79c11.1,0,20.11,8.92,20.26,19.95
		C61.52,186.52,64.37,190.4,64.37,194.95z"/>
</g>
</svg>
