<?xml version="1.0" encoding="utf-8"?>
<!-- Generator: Adobe Illustrator 24.3.0, SVG Export Plug-In . SVG Version: 6.00 Build 0)  -->
<svg version="1.1" id="Layer_1" xmlns="http://www.w3.org/2000/svg" xmlns:xlink="http://www.w3.org/1999/xlink" x="0px" y="0px"
	 viewBox="0 0 721.9 94" style="enable-background:new 0 0 721.9 94;" xml:space="preserve">
<style type="text/css">
	.st0{fill:#565656;}
</style>
<g>
	<path class="st0" d="M34.3,88.1V10.3h17.5v29.9h26.8V10.3h17.6v77.7H78.6V55.7H51.8v32.4H34.3z"/>
	<path class="st0" d="M138.5,88.1V10.3H156v77.7H138.5z"/>
	<path class="st0" d="M198.2,88.1V10.3h21.9c6,0,11.3,0.8,16.1,2.3c4.8,1.5,8.9,3.8,12.3,7c3.4,3.1,6,7.1,7.9,12
		c1.8,4.9,2.7,10.6,2.7,17.3c0,6.7-0.9,12.5-2.7,17.4c-1.8,4.9-4.4,9-7.8,12.2s-7.3,5.6-12,7.2c-4.7,1.6-9.8,2.4-15.6,2.4H198.2z
		 M215.8,73.9h3.3c3.3,0,6.4-0.4,9.1-1.3c2.7-0.9,5-2.3,6.9-4.2c1.9-1.9,3.4-4.5,4.5-7.7c1.1-3.2,1.6-7.1,1.6-11.8
		c0-4.6-0.5-8.5-1.6-11.6c-1.1-3.1-2.6-5.6-4.5-7.5c-1.9-1.9-4.2-3.2-6.9-4c-2.7-0.8-5.7-1.2-9.1-1.2h-3.3V73.9z"/>
	<path class="st0" d="M297.8,88.1V10.3h28c4.1,0,8,0.4,11.6,1.2c3.6,0.8,6.8,2.1,9.5,4c2.7,1.9,4.8,4.4,6.4,7.5
		c1.6,3.1,2.4,7,2.4,11.6c0,5.7-1.3,10.4-3.8,14.1c-2.5,3.7-5.9,6.5-10.1,8.3l17.6,31.1h-19.7l-14.9-28h-9.7v28H297.8z M315.3,46.1
		h9.1c4.6,0,8.1-1,10.6-2.9c2.4-1.9,3.6-4.8,3.6-8.6s-1.2-6.5-3.6-8c-2.4-1.5-5.9-2.3-10.6-2.3h-9.1V46.1z"/>
	<path class="st0" d="M426.4,89.5c-5.2,0-10-0.9-14.4-2.8c-4.3-1.9-8-4.5-11.1-8c-3.1-3.5-5.5-7.8-7.2-12.8
		c-1.7-5-2.6-10.7-2.6-17.1c0-6.4,0.9-12,2.6-17c1.7-5,4.1-9.1,7.2-12.5c3.1-3.4,6.8-6,11.1-7.8c4.3-1.8,9.1-2.7,14.4-2.7
		c5.2,0,10,0.9,14.4,2.7c4.3,1.8,8,4.4,11.1,7.8c3.1,3.4,5.5,7.6,7.2,12.6c1.7,5,2.6,10.6,2.6,16.9c0,6.4-0.9,12-2.6,17.1
		c-1.7,5-4.1,9.3-7.2,12.8c-3.1,3.5-6.8,6.2-11.1,8C436.4,88.6,431.6,89.5,426.4,89.5z M426.4,74.4c5.3,0,9.5-2.3,12.6-6.9
		c3.1-4.6,4.7-10.8,4.7-18.7c0-7.8-1.5-13.9-4.7-18.2c-3.1-4.4-7.3-6.6-12.6-6.6c-5.3,0-9.5,2.2-12.6,6.6
		c-3.1,4.4-4.7,10.5-4.7,18.2c0,7.9,1.5,14.1,4.7,18.7C416.8,72.1,421,74.4,426.4,74.4z"/>
	<path class="st0" d="M496.1,64.1V51.7h29.3v12.4H496.1z"/>
	<path class="st0" d="M583.3,89.5c-3.7,0-7-0.7-10-2.1c-3-1.4-5.5-3.5-7.6-6.1c-2.1-2.7-3.7-5.9-4.9-9.7c-1.2-3.8-1.7-8.1-1.7-13
		c0-4.8,0.7-9.2,2.1-13c1.4-3.8,3.2-7.1,5.5-9.7c2.3-2.7,4.9-4.7,7.9-6.1c3-1.4,6-2.1,9.1-2.1c3.3,0,6.1,0.6,8.2,1.7
		c2.1,1.1,4.3,2.6,6.3,4.5l-0.7-9.1V4.5H615v83.6h-14.3l-1.2-5.8H599c-2.1,2.1-4.5,3.8-7.3,5.2C589,88.8,586.1,89.5,583.3,89.5z
		 M587.8,75.2c1.9,0,3.6-0.4,5.2-1.2c1.5-0.8,3-2.2,4.5-4.2V45.6c-1.6-1.4-3.2-2.4-4.9-3c-1.7-0.6-3.3-0.8-4.9-0.8
		c-2.8,0-5.2,1.3-7.4,4c-2.1,2.7-3.2,6.8-3.2,12.5c0,5.9,0.9,10.2,2.8,12.9C581.7,73.9,584.4,75.2,587.8,75.2z"/>
	<path class="st0" d="M662.7,89.5c-2.6,0-5.3-0.7-7.9-2c-2.7-1.3-5.1-3.2-7.5-5.8h-0.5l-1.4,6.3h-13.7V4.5h17.5V25l-0.5,9.1
		c2.3-2.1,4.8-3.7,7.5-4.8c2.7-1.2,5.4-1.7,8.2-1.7c3.6,0,6.8,0.7,9.7,2.1c2.9,1.4,5.3,3.4,7.3,6c2,2.6,3.6,5.7,4.7,9.4
		c1.1,3.7,1.6,7.8,1.6,12.3c0,5.1-0.7,9.6-2.1,13.6c-1.4,4-3.3,7.3-5.6,10.1c-2.3,2.7-5,4.8-8,6.3C669,88.8,665.9,89.5,662.7,89.5z
		 M658.6,75.2c3,0,5.6-1.4,7.8-4.1c2.1-2.7,3.2-7.2,3.2-13.3c0-10.7-3.4-16-10.3-16c-3.5,0-6.9,1.8-10.1,5.4v24.2
		c1.6,1.4,3.2,2.4,4.8,3C655.6,74.9,657.1,75.2,658.6,75.2z"/>
</g>
</svg>
