<?xml version="1.0" encoding="utf-8"?>
<!-- Generator: Adobe Illustrator 24.0.1, SVG Export Plug-In . SVG Version: 6.00 Build 0)  -->
<svg version="1.1" id="Layer_1" xmlns="http://www.w3.org/2000/svg" xmlns:xlink="http://www.w3.org/1999/xlink" x="0px" y="0px"
	 viewBox="0 0 13.2 11.5" style="enable-background:new 0 0 13.2 11.5;" xml:space="preserve">
<path d="M6.7,9.8L3,6.2C2.8,5.9,2.8,5.5,3,5.3l3.7-3.7c0.3-0.3,0.3-0.7,0-0.9L6.2,0.2c-0.3-0.3-0.7-0.3-0.9,0L0.2,5.3
	c-0.3,0.3-0.3,0.7,0,0.9l5.1,5.1c0.3,0.3,0.7,0.3,0.9,0l0.5-0.5C6.9,10.5,6.9,10.1,6.7,9.8z"/>
<path d="M13,9.8L9.3,6.2c-0.3-0.3-0.3-0.7,0-0.9L13,1.6c0.3-0.3,0.3-0.7,0-0.9l-0.5-0.5c-0.3-0.3-0.7-0.3-0.9,0L6.5,5.3
	c-0.3,0.3-0.3,0.7,0,0.9l5.1,5.1c0.3,0.3,0.7,0.3,0.9,0l0.5-0.5C13.2,10.5,13.2,10.1,13,9.8z"/>
</svg>
