<?xml version="1.0" encoding="utf-8"?>
<!-- Generator: Adobe Illustrator 24.3.0, SVG Export Plug-In . SVG Version: 6.00 Build 0)  -->
<svg version="1.1"
	 viewBox="0 0 24 24" width="24" height="24">
<path d="M21.7,2.3c-0.1-0.2-0.3-0.2-0.5-0.3c-0.2,0-0.4,0.1-0.6,0.2L20,2.9c-0.1,0.1-0.1,0.4,0,0.5L20.6,4c0.1,0.1,0.2,0.1,0.3,0.1
	C21,4.1,21,4,21.1,4l0.6-0.6C22,3.1,22,2.6,21.7,2.3L21.7,2.3z M18.8,4.1l-8.6,8.6c-0.1,0.1-0.1,0.1-0.1,0.2l-0.4,1.2
	c0,0.1,0.1,0.3,0.2,0.2l1.2-0.4c0.1,0,0.1-0.1,0.2-0.1l8.6-8.6c0.2-0.2,0.2-0.4,0-0.6l-0.5-0.5C19.3,3.9,19,3.9,18.8,4.1L18.8,4.1z
	 M18.8,4.1 M18.2,9l-5.8,5.8c-0.2,0.2-0.5,0.4-0.8,0.5l-1.2,0.4c-0.6,0.2-1.2,0-1.7-0.4c-0.4-0.4-0.6-1.1-0.4-1.7l0.4-1.2
	c0.1-0.3,0.3-0.6,0.5-0.8L15,5.8c0.1-0.1,0.1-0.3,0.1-0.4c-0.1-0.1-0.2-0.2-0.4-0.2h-10c-1.5,0-2.7,1.2-2.7,2.7v11.5
	c0,1.5,1.2,2.7,2.7,2.7h11.5c1.5,0,2.7-1.2,2.7-2.7v-10c0-0.2-0.1-0.3-0.2-0.4C18.5,8.9,18.3,8.9,18.2,9L18.2,9z M18.2,9"/>
</svg>
