
<?xml version="1.0" encoding="utf-8"?>
<!-- Generator: Adobe Illustrator 24.3.0, SVG Export Plug-In . SVG Version: 6.00 Build 0)  -->
<svg version="1.1"
	 viewBox="0 0 24 24" width="24" height="24">
<path d="M12,3.5c-4.7,0-8.5,3.8-8.5,8.5c0,4.7,3.8,8.5,8.5,8.5c4.7,0,8.5-3.8,8.5-8.5C20.5,7.3,16.7,3.5,12,3.5L12,3.5z M12,16.3
	c-2.1,0-3.8-1.7-3.8-3.8c0-2.1,1.7-3.8,3.8-3.8h0.2L11.6,8c-0.2-0.2-0.2-0.6,0-0.8c0.2-0.2,0.6-0.2,0.8,0L14,8.9
	c0.1,0.1,0.2,0.3,0.2,0.4c0,0.2-0.1,0.3-0.2,0.4l-1.6,1.6c-0.2,0.2-0.6,0.2-0.8,0c-0.2-0.2-0.2-0.6,0-0.8l0.7-0.7
	c-0.1,0-0.2,0-0.3,0c-1.1,0-2.1,0.7-2.5,1.7c-0.4,1-0.2,2.2,0.6,2.9c0.8,0.8,1.9,1,2.9,0.6c1-0.4,1.7-1.4,1.7-2.5
	c0-0.3,0.3-0.6,0.6-0.6c0.3,0,0.6,0.3,0.6,0.6C15.8,14.6,14.1,16.3,12,16.3L12,16.3z M12,16.3"/>
</svg>
