<?xml version="1.0" encoding="utf-8"?>
<!-- Generator: Adobe Illustrator 24.3.0, SVG Export Plug-In . SVG Version: 6.00 Build 0)  -->
<svg version="1.1"
	 viewBox="0 0 24 24" width="24" height="24">
<path d="M20.7,6.3l-3.1-3.1c-0.4-0.4-0.9-0.6-1.4-0.6H5.4c-1.5,0-2.7,1.2-2.7,2.7v13.3c0,1.5,1.2,2.7,2.7,2.7h13.3
	c1.5,0,2.7-1.2,2.7-2.7V7.8C21.3,7.2,21.1,6.7,20.7,6.3L20.7,6.3z M6.4,6h7.3C13.8,6,14,6.2,14,6.4v2c0,0.2-0.1,0.3-0.3,0.3H6.4
	C6.2,8.7,6,8.5,6,8.4v-2C6,6.2,6.2,6,6.4,6L6.4,6z M12.2,19.3c-1.4,0.1-2.6-0.7-3.2-2c-0.6-1.3-0.3-2.7,0.7-3.7c1-1,2.4-1.2,3.7-0.7
	c1.3,0.6,2,1.8,2,3.2C15.2,17.8,13.9,19.2,12.2,19.3L12.2,19.3z M12.2,19.3 M14,16c0,1.1-0.9,2-2,2c-1.1,0-2-0.9-2-2s0.9-2,2-2
	C13.1,14,14,14.9,14,16L14,16z M14,16"/>
</svg>
