<?xml version="1.0" encoding="utf-8"?>
<!-- Generator: Adobe Illustrator 24.3.0, SVG Export Plug-In . SVG Version: 6.00 Build 0)  -->
<svg version="1.1"
	 viewBox="0 0 24 24" width="24" height="24">
<path d="M18.9,5.7h-3.8V4.8c0-0.9-0.7-1.6-1.6-1.6h-3.1c-0.9,0-1.6,0.7-1.6,1.6v0.9H5.1C4.7,5.7,4.4,6,4.4,6.3S4.7,7,5.1,7h0.7
	l0.7,12c0.1,1.1,0.9,1.9,1.9,1.9h7.2c1,0,1.8-0.8,1.9-1.8l0.7-12h0.7c0.3,0,0.6-0.3,0.6-0.6S19.3,5.7,18.9,5.7L18.9,5.7z M9.5,18.3
	L9.5,18.3c-0.4,0-0.6-0.3-0.7-0.6L8.5,8.9c0-0.2,0.1-0.3,0.2-0.5C8.8,8.3,9,8.2,9.1,8.2c0.2,0,0.3,0.1,0.5,0.2
	c0.1,0.1,0.2,0.3,0.2,0.4l0.3,8.8c0,0.2-0.1,0.3-0.2,0.5C9.8,18.2,9.7,18.3,9.5,18.3L9.5,18.3z M12.6,17.7c0,0.3-0.3,0.6-0.6,0.6
	c-0.3,0-0.6-0.3-0.6-0.6V8.9c0-0.3,0.3-0.6,0.6-0.6c0.3,0,0.6,0.3,0.6,0.6V17.7z M13.9,5.7h-3.8V4.8c0-0.1,0-0.2,0.1-0.2
	c0.1-0.1,0.1-0.1,0.2-0.1h3.1c0.1,0,0.2,0,0.2,0.1c0.1,0.1,0.1,0.1,0.1,0.2V5.7z M15.1,17.7c0,0.3-0.3,0.6-0.6,0.6h0
	c-0.2,0-0.3-0.1-0.4-0.2c-0.1-0.1-0.2-0.3-0.2-0.5l0.3-8.8c0-0.2,0.1-0.3,0.2-0.4c0.1-0.1,0.3-0.2,0.5-0.2c0.2,0,0.3,0.1,0.4,0.2
	c0.1,0.1,0.2,0.3,0.2,0.5L15.1,17.7z M15.1,17.7"/>
</svg>