<?xml version="1.0" encoding="utf-8"?>
<!-- Generator: Adobe Illustrator 24.3.0, SVG Export Plug-In . SVG Version: 6.00 Build 0)  -->
<svg version="1.1"
	 viewBox="0 0 24 24" width="24" height="24">
<path d="M12,2.6c-5.2,0-9.4,4.2-9.4,9.4s4.2,9.4,9.4,9.4s9.4-4.2,9.4-9.4S17.2,2.6,12,2.6L12,2.6z M16.4,15.3
	c-1.1-1.1-2.3-1.7-4.9-1.7v1.7c0,0.2-0.1,0.3-0.2,0.3c-0.1,0.1-0.3,0-0.4-0.1l-3.8-3.6c-0.1-0.1-0.1-0.2-0.1-0.3
	c0-0.1,0-0.2,0.1-0.3l3.8-3.6c0.1-0.1,0.3-0.1,0.4-0.1c0.1,0.1,0.2,0.2,0.2,0.3v1.7c4,0,5.3,2.5,5.6,5.3
	C17.1,15.4,16.7,15.6,16.4,15.3L16.4,15.3z M16.4,15.3"/>
</svg>
